<?xml version="1.0" encoding="iso-8859-1"?>
<!-- Generator: Adobe Illustrator 19.0.0, SVG Export Plug-In . SVG Version: 6.00 Build 0)  -->
<svg xmlns="http://www.w3.org/2000/svg" xmlns:xlink="http://www.w3.org/1999/xlink" version="1.1" id="Capa_1" x="0px" y="0px" viewBox="0 0 512 512" style="enable-background:new 0 0 512 512;" xml:space="preserve">
<g>
	<g>
		<path d="M467,60h-16V45c0-24.813-20.187-45-45-45s-45,20.187-45,45v15h-60V45c0-24.813-20.187-45-45-45s-45,20.187-45,45v15h-60    V45c0-24.813-20.187-45-45-45S61,20.187,61,45v15H45C20.187,60,0,80.187,0,105v91v271c0,24.813,20.187,45,45,45h422    c24.813,0,45-20.187,45-45c0-4.406,0-355.832,0-362C512,80.187,491.813,60,467,60z M391,45c0-8.271,6.729-15,15-15s15,6.729,15,15    v60c0,8.271-6.729,15-15,15s-15-6.729-15-15V45z M241,45c0-8.271,6.729-15,15-15s15,6.729,15,15v60c0,8.271-6.729,15-15,15    s-15-6.729-15-15V45z M91,45c0-8.271,6.729-15,15-15s15,6.729,15,15v60c0,8.271-6.729,15-15,15s-15-6.729-15-15V45z M482,467    c0,8.271-6.729,15-15,15H45c-8.271,0-15-6.729-15-15V211h452V467z M482,181H30v-76c0-8.271,6.729-15,15-15h16v15    c0,24.813,20.187,45,45,45s45-20.187,45-45V90h60v15c0,24.813,20.187,45,45,45s45-20.187,45-45V90h60v15c0,24.813,20.187,45,45,45    s45-20.187,45-45V90h16c8.271,0,15,6.729,15,15V181z"/>
	</g>
</g>
<g>
	<g>
		<path d="M136,241H76c-8.284,0-15,6.716-15,15s6.716,15,15,15h60c8.284,0,15-6.716,15-15S144.284,241,136,241z"/>
	</g>
</g>
<g>
	<g>
		<path d="M286,241h-60c-8.284,0-15,6.716-15,15s6.716,15,15,15h60c8.284,0,15-6.716,15-15S294.284,241,286,241z"/>
	</g>
</g>
<g>
	<g>
		<path d="M436,241h-60c-8.284,0-15,6.716-15,15s6.716,15,15,15h60c8.284,0,15-6.716,15-15S444.284,241,436,241z"/>
	</g>
</g>
<g>
	<g>
		<path d="M136,331H76c-8.284,0-15,6.716-15,15s6.716,15,15,15h60c8.284,0,15-6.716,15-15S144.284,331,136,331z"/>
	</g>
</g>
<g>
	<g>
		<path d="M286,331h-60c-8.284,0-15,6.716-15,15s6.716,15,15,15h60c8.284,0,15-6.716,15-15S294.284,331,286,331z"/>
	</g>
</g>
<g>
	<g>
		<path d="M436,331h-60c-8.284,0-15,6.716-15,15s6.716,15,15,15h60c8.284,0,15-6.716,15-15S444.284,331,436,331z"/>
	</g>
</g>
<g>
	<g>
		<path d="M136,422H76c-8.284,0-15,6.716-15,15s6.716,15,15,15h60c8.284,0,15-6.716,15-15S144.284,422,136,422z"/>
	</g>
</g>
<g>
	<g>
		<path d="M286,422h-60c-8.284,0-15,6.716-15,15s6.716,15,15,15h60c8.284,0,15-6.716,15-15S294.284,422,286,422z"/>
	</g>
</g>
<g>
	<g>
		<path d="M436,422h-60c-8.284,0-15,6.716-15,15s6.716,15,15,15h60c8.284,0,15-6.716,15-15S444.284,422,436,422z"/>
	</g>
</g>
<g>
</g>
<g>
</g>
<g>
</g>
<g>
</g>
<g>
</g>
<g>
</g>
<g>
</g>
<g>
</g>
<g>
</g>
<g>
</g>
<g>
</g>
<g>
</g>
<g>
</g>
<g>
</g>
<g>
</g>
</svg>
